<?xml version="1.0" encoding="UTF-8"?>
<svg xmlns="http://www.w3.org/2000/svg" xmlns:xlink="http://www.w3.org/1999/xlink" width="514pt" height="514pt" viewBox="0 0 514 514" version="1.1">
<g id="surface1">
<path style=" stroke:none;fill-rule:nonzero;fill:rgb(80.076599%,80.076599%,80.076599%);fill-opacity:1;" d="M 446.210938 514 L 67.789063 514 C 30.351563 514 0 483.648438 0 446.210938 L 0 67.789063 C 0 30.351563 30.351563 0 67.789063 0 L 446.210938 0 C 483.648438 0 514 30.351563 514 67.789063 L 514 446.210938 C 514 483.648438 483.648438 514 446.210938 514 "/>
<path style=" stroke:none;fill-rule:nonzero;fill:rgb(98.046875%,66.992188%,2.745056%);fill-opacity:1;" d="M 257.007813 430.117188 C 226.140625 430.117188 197.808594 419.785156 179.5625 404.351563 C 170.296875 407.121094 158.449219 411.574219 150.972656 417.101563 C 144.570313 421.824219 145.367188 426.640625 146.519531 428.585938 C 151.585938 437.132813 233.390625 434.042969 257.007813 431.382813 "/>
<path style=" stroke:none;fill-rule:nonzero;fill:rgb(98.046875%,66.992188%,2.745056%);fill-opacity:1;" d="M 257.007813 430.117188 C 287.878906 430.117188 316.210938 419.785156 334.457031 404.351563 C 343.71875 407.121094 355.570313 411.574219 363.050781 417.101563 C 369.445313 421.824219 368.648438 426.640625 367.496094 428.585938 C 362.433594 437.132813 280.628906 434.042969 257.007813 431.382813 "/>
<path style=" stroke:none;fill-rule:nonzero;fill:rgb(0%,0%,0%);fill-opacity:1;" d="M 257.1875 245.113281 C 308.164063 244.769531 349.015625 234.902344 362.859375 231.117188 C 366.15625 230.214844 367.921875 228.597656 367.921875 228.597656 C 367.9375 228.132813 368.132813 220.296875 368.132813 216.257813 C 368.132813 148.203125 336.007813 79.816406 256.996094 79.8125 C 177.992188 79.816406 145.867188 148.203125 145.867188 216.257813 C 145.867188 220.296875 146.0625 228.132813 146.078125 228.597656 C 146.078125 228.597656 147.511719 230.109375 150.144531 230.84375 C 162.925781 234.398438 204.546875 244.757813 256.8125 245.113281 "/>
<path style=" stroke:none;fill-rule:nonzero;fill:rgb(0%,0%,0%);fill-opacity:1;" d="M 395.710938 301.808594 C 392.546875 291.640625 388.234375 279.78125 383.867188 268.390625 C 383.867188 268.390625 381.355469 268.082031 380.085938 268.449219 C 340.890625 279.835938 293.386719 287.09375 257.1875 286.652344 L 256.8125 286.652344 C 220.8125 287.085938 173.632813 279.914063 134.570313 268.640625 C 133.078125 268.210938 130.132813 268.390625 130.132813 268.390625 C 125.765625 279.78125 121.453125 291.640625 118.292969 301.808594 C 103.222656 350.300781 108.105469 370.367188 111.824219 370.820313 C 119.796875 371.78125 142.871094 334.3125 142.871094 334.3125 C 142.871094 372.386719 177.242188 430.847656 255.957031 431.382813 C 256.304688 431.378906 257.695313 431.378906 258.042969 431.382813 C 336.757813 430.847656 371.128906 372.386719 371.128906 334.3125 C 371.128906 334.3125 394.203125 371.78125 402.179688 370.820313 C 405.894531 370.367188 410.777344 350.300781 395.710938 301.808594 "/>
<path style=" stroke:none;fill-rule:nonzero;fill:rgb(100%,100%,100%);fill-opacity:1;" d="M 228.886719 180.355469 C 218.167969 180.839844 209.011719 168.628906 208.4375 153.109375 C 207.855469 137.578125 216.066406 124.597656 226.78125 124.113281 C 237.488281 123.636719 246.644531 135.839844 247.222656 151.367188 C 247.8125 166.894531 239.597656 179.878906 228.886719 180.355469 "/>
<path style=" stroke:none;fill-rule:nonzero;fill:rgb(100%,100%,100%);fill-opacity:1;" d="M 305.5625 153.109375 C 304.988281 168.628906 295.832031 180.839844 285.113281 180.355469 C 274.402344 179.875 266.1875 166.894531 266.777344 151.367188 C 267.355469 135.839844 276.511719 123.632813 287.21875 124.113281 C 297.933594 124.597656 306.144531 137.578125 305.5625 153.109375 "/>
<path style=" stroke:none;fill-rule:nonzero;fill:rgb(98.046875%,66.992188%,2.745056%);fill-opacity:1;" d="M 324.609375 202.277344 C 321.746094 195.933594 292.902344 188.863281 257.191406 188.863281 L 256.808594 188.863281 C 221.097656 188.863281 192.253906 195.933594 189.390625 202.277344 C 189.261719 202.550781 189.179688 202.855469 189.179688 203.179688 C 189.179688 203.636719 189.335938 204.050781 189.574219 204.402344 C 191.988281 207.917969 224.015625 225.304688 256.808594 225.304688 L 257.191406 225.304688 C 289.984375 225.304688 322.011719 207.921875 324.425781 204.402344 C 324.664063 204.050781 324.816406 203.636719 324.816406 203.175781 C 324.816406 202.855469 324.738281 202.550781 324.609375 202.277344 "/>
<path style=" stroke:none;fill-rule:nonzero;fill:rgb(0%,0%,0%);fill-opacity:1;" d="M 242.0625 153.335938 C 242.550781 159.46875 239.1875 164.917969 234.558594 165.511719 C 229.921875 166.109375 225.773438 161.621094 225.277344 155.484375 C 224.792969 149.347656 228.152344 143.902344 232.773438 143.3125 C 237.417969 142.710938 241.578125 147.203125 242.0625 153.335938 "/>
<path style=" stroke:none;fill-rule:nonzero;fill:rgb(0%,0%,0%);fill-opacity:1;" d="M 271.507813 155.386719 C 272.453125 153.691406 278.90625 144.769531 292.261719 148.015625 C 295.769531 148.871094 297.390625 150.128906 297.734375 150.617188 C 298.238281 151.347656 298.378906 152.386719 297.867188 153.785156 C 296.851563 156.558594 294.753906 156.484375 293.59375 155.941406 C 292.84375 155.589844 283.542969 149.390625 274.972656 158.640625 C 274.382813 159.277344 273.324219 159.492188 272.328125 158.738281 C 271.328125 157.984375 270.914063 156.453125 271.507813 155.386719 "/>
<path style=" stroke:none;fill-rule:nonzero;fill:rgb(100%,100%,100%);fill-opacity:1;" d="M 257.1875 284.421875 L 256.8125 284.421875 C 232.191406 284.722656 202.34375 281.460938 173.433594 275.761719 C 170.960938 290.089844 169.46875 308.101563 170.75 329.578125 C 173.992188 383.867188 206.234375 417.992188 255.996094 418.488281 L 258.019531 418.488281 C 307.789063 417.992188 340.023438 383.867188 343.269531 329.578125 C 344.554688 308.097656 343.054688 290.089844 340.582031 275.757813 C 311.671875 281.460938 281.8125 284.722656 257.1875 284.421875 "/>
<path style=" stroke:none;fill-rule:nonzero;fill:rgb(92.1875%,9.812927%,13.719177%);fill-opacity:1;" d="M 187.0625 279.878906 L 187.0625 333.308594 C 187.0625 333.308594 211.535156 338.242188 236.054688 334.824219 L 236.054688 285.546875 C 220.519531 284.664063 203.769531 282.707031 187.0625 279.878906 "/>
<path style=" stroke:none;fill-rule:nonzero;fill:rgb(92.1875%,9.812927%,13.719177%);fill-opacity:1;" d="M 367.921875 228.597656 C 367.921875 228.597656 320.316406 243.625 257.1875 244.050781 L 256.8125 244.050781 C 193.785156 243.628906 146.238281 228.648438 146.078125 228.597656 L 130.132813 268.390625 C 170.015625 280.417969 219.4375 288.164063 256.8125 287.714844 L 257.1875 287.714844 C 294.5625 288.164063 343.984375 280.417969 383.867188 268.390625 "/>
</g>
</svg>
